<svg width="423" height="120" viewBox="0 0 423 120" fill="none" xmlns="http://www.w3.org/2000/svg">
<g filter="url(#filter0_d_68_41)">
<path d="M45.8233 44.44V56.76H32.6633V94H17.1233V56.76H4.10332V44.44H45.8233ZM65.2281 44.44V72.37C65.2281 74.6567 65.7181 76.4767 66.6981 77.83C67.7248 79.1367 69.3581 79.79 71.5981 79.79C73.8381 79.79 75.4948 79.1367 76.5681 77.83C77.6414 76.4767 78.1781 74.6567 78.1781 72.37V44.44H93.6481V72.37C93.6481 77.0833 92.6681 81.12 90.7081 84.48C88.7481 87.7933 86.0648 90.29 82.6581 91.97C79.2514 93.65 75.4481 94.49 71.2481 94.49C67.0481 94.49 63.3148 93.65 60.0481 91.97C56.8281 90.29 54.3081 87.7933 52.4881 84.48C50.6681 81.1667 49.7581 77.13 49.7581 72.37V44.44H65.2281ZM125.271 94L115.961 76.22H115.891V94H100.351V44.44H123.451C127.464 44.44 130.894 45.1633 133.741 46.61C136.587 48.01 138.711 49.9467 140.111 52.42C141.557 54.8467 142.281 57.6 142.281 60.68C142.281 63.9933 141.347 66.9333 139.481 69.5C137.661 72.0667 135.024 73.91 131.571 75.03L142.351 94H125.271ZM115.891 65.86H122.051C123.544 65.86 124.664 65.5333 125.411 64.88C126.157 64.18 126.531 63.1067 126.531 61.66C126.531 60.3533 126.134 59.3267 125.341 58.58C124.594 57.8333 123.497 57.46 122.051 57.46H115.891V65.86ZM180.425 68.59C183.412 69.29 185.722 70.7367 187.355 72.93C189.035 75.0767 189.875 77.5733 189.875 80.42C189.875 84.76 188.428 88.12 185.535 90.5C182.688 92.8333 178.582 94 173.215 94H147.245V44.44H172.515C177.555 44.44 181.522 45.5367 184.415 47.73C187.308 49.9233 188.755 53.12 188.755 57.32C188.755 60.2133 187.985 62.6633 186.445 64.67C184.952 66.63 182.945 67.9367 180.425 68.59ZM162.785 63.76H168.805C170.205 63.76 171.232 63.48 171.885 62.92C172.585 62.36 172.935 61.4967 172.935 60.33C172.935 59.1167 172.585 58.23 171.885 57.67C171.232 57.0633 170.205 56.76 168.805 56.76H162.785V63.76ZM169.855 81.54C171.255 81.54 172.282 81.2833 172.935 80.77C173.635 80.21 173.985 79.3233 173.985 78.11C173.985 75.73 172.608 74.54 169.855 74.54H162.785V81.54H169.855Z" fill="#DF190D"/>
</g>
<g filter="url(#filter1_d_68_41)">
<mask id="path-2-outside-1_68_41" maskUnits="userSpaceOnUse" x="272" y="42" width="144" height="54" fill="black">
<rect fill="white" x="272" y="42" width="144" height="54"/>
<path d="M305.338 61.38C304.731 60.4 303.868 59.6533 302.748 59.14C301.628 58.58 300.275 58.3 298.688 58.3C295.701 58.3 293.391 59.28 291.758 61.24C290.125 63.1533 289.308 65.79 289.308 69.15C289.308 73.0233 290.218 75.9167 292.038 77.83C293.858 79.7433 296.658 80.7 300.438 80.7C304.031 80.7 306.925 79.2533 309.118 76.36H296.728V65.37H321.998V80.91C319.851 84.5967 316.888 87.77 313.108 90.43C309.328 93.0433 304.545 94.35 298.758 94.35C293.625 94.35 289.145 93.3 285.318 91.2C281.538 89.0533 278.621 86.0667 276.568 82.24C274.561 78.4133 273.558 74.05 273.558 69.15C273.558 64.25 274.561 59.8867 276.568 56.06C278.621 52.2333 281.538 49.27 285.318 47.17C289.098 45.0233 293.531 43.95 298.618 43.95C305.105 43.95 310.378 45.5133 314.438 48.64C318.545 51.7667 320.971 56.0133 321.718 61.38H305.338ZM343.135 56.83V62.92H358.535V74.61H343.135V81.61H360.635V94H327.595V44.44H360.635V56.83H343.135ZM414.021 94H398.481L382.031 69.08V94H366.491V44.44H382.031L398.481 69.78V44.44H414.021V94Z"/>
</mask>
<path d="M305.338 61.38C304.731 60.4 303.868 59.6533 302.748 59.14C301.628 58.58 300.275 58.3 298.688 58.3C295.701 58.3 293.391 59.28 291.758 61.24C290.125 63.1533 289.308 65.79 289.308 69.15C289.308 73.0233 290.218 75.9167 292.038 77.83C293.858 79.7433 296.658 80.7 300.438 80.7C304.031 80.7 306.925 79.2533 309.118 76.36H296.728V65.37H321.998V80.91C319.851 84.5967 316.888 87.77 313.108 90.43C309.328 93.0433 304.545 94.35 298.758 94.35C293.625 94.35 289.145 93.3 285.318 91.2C281.538 89.0533 278.621 86.0667 276.568 82.24C274.561 78.4133 273.558 74.05 273.558 69.15C273.558 64.25 274.561 59.8867 276.568 56.06C278.621 52.2333 281.538 49.27 285.318 47.17C289.098 45.0233 293.531 43.95 298.618 43.95C305.105 43.95 310.378 45.5133 314.438 48.64C318.545 51.7667 320.971 56.0133 321.718 61.38H305.338ZM343.135 56.83V62.92H358.535V74.61H343.135V81.61H360.635V94H327.595V44.44H360.635V56.83H343.135ZM414.021 94H398.481L382.031 69.08V94H366.491V44.44H382.031L398.481 69.78V44.44H414.021V94Z" fill="white"/>
<path d="M305.338 61.38L304.063 62.1695L304.502 62.88H305.338V61.38ZM302.748 59.14L302.077 60.4816L302.1 60.493L302.123 60.5036L302.748 59.14ZM291.758 61.24L292.899 62.2139L292.905 62.2071L292.91 62.2003L291.758 61.24ZM292.038 77.83L290.951 78.8638L290.951 78.8638L292.038 77.83ZM309.118 76.36L310.313 77.2662L312.137 74.86H309.118V76.36ZM296.728 76.36H295.228V77.86H296.728V76.36ZM296.728 65.37V63.87H295.228V65.37H296.728ZM321.998 65.37H323.498V63.87H321.998V65.37ZM321.998 80.91L323.294 81.6648L323.498 81.3149V80.91H321.998ZM313.108 90.43L313.961 91.6639L313.971 91.6567L313.108 90.43ZM285.318 91.2L284.577 92.5043L284.587 92.5097L284.596 92.515L285.318 91.2ZM276.568 82.24L275.24 82.9366L275.243 82.9429L275.246 82.9492L276.568 82.24ZM276.568 56.06L275.246 55.3508L275.243 55.3571L275.24 55.3634L276.568 56.06ZM285.318 47.17L286.047 48.4813L286.059 48.4743L285.318 47.17ZM314.438 48.64L313.523 49.8284L313.529 49.8335L314.438 48.64ZM321.718 61.38V62.88H323.441L323.204 61.1733L321.718 61.38ZM306.613 60.5905C305.84 59.3416 304.742 58.4039 303.373 57.7764L302.123 60.5036C302.994 60.9027 303.622 61.4584 304.063 62.1695L306.613 60.5905ZM303.419 57.7984C302.042 57.1102 300.447 56.8 298.688 56.8V59.8C300.102 59.8 301.214 60.0498 302.077 60.4816L303.419 57.7984ZM298.688 56.8C295.341 56.8 292.574 57.9178 290.606 60.2797L292.91 62.2003C294.209 60.6422 296.062 59.8 298.688 59.8V56.8ZM290.617 60.2661C288.684 62.5306 287.808 65.5539 287.808 69.15H290.808C290.808 66.0261 291.565 63.776 292.899 62.2139L290.617 60.2661ZM287.808 69.15C287.808 73.2304 288.765 76.5651 290.951 78.8638L293.125 76.7962C291.671 75.2683 290.808 72.8162 290.808 69.15H287.808ZM290.951 78.8638C293.158 81.1839 296.427 82.2 300.438 82.2V79.2C296.889 79.2 294.558 78.3028 293.125 76.7962L290.951 78.8638ZM300.438 82.2C304.506 82.2 307.84 80.529 310.313 77.2662L307.923 75.4538C306.009 77.9777 303.556 79.2 300.438 79.2V82.2ZM309.118 74.86H296.728V77.86H309.118V74.86ZM298.228 76.36V65.37H295.228V76.36H298.228ZM296.728 66.87H321.998V63.87H296.728V66.87ZM320.498 65.37V80.91H323.498V65.37H320.498ZM320.702 80.1552C318.673 83.6401 315.863 86.6571 312.245 89.2033L313.971 91.6567C317.913 88.8829 321.03 85.5533 323.294 81.6648L320.702 80.1552ZM312.255 89.1962C308.784 91.596 304.319 92.85 298.758 92.85V95.85C304.77 95.85 309.872 94.4907 313.961 91.6638L312.255 89.1962ZM298.758 92.85C293.832 92.85 289.609 91.8439 286.04 89.885L284.596 92.515C288.68 94.7561 293.417 95.85 298.758 95.85V92.85ZM286.059 89.8957C282.524 87.8885 279.809 85.108 277.89 81.5308L275.246 82.9492C277.433 87.0253 280.552 90.2182 284.577 92.5043L286.059 89.8957ZM277.896 81.5434C276.017 77.959 275.058 73.8402 275.058 69.15H272.058C272.058 74.2598 273.106 78.8677 275.24 82.9366L277.896 81.5434ZM275.058 69.15C275.058 64.4598 276.017 60.341 277.896 56.7566L275.24 55.3634C273.106 59.4323 272.058 64.0402 272.058 69.15H275.058ZM277.89 56.7692C279.808 53.1948 282.519 50.4409 286.046 48.4812L284.59 45.8588C280.557 48.0991 277.435 51.2719 275.246 55.3508L277.89 56.7692ZM286.059 48.4743C289.577 46.4762 293.747 45.45 298.618 45.45V42.45C293.316 42.45 288.619 43.5704 284.577 45.8657L286.059 48.4743ZM298.618 45.45C304.863 45.45 309.788 46.9522 313.523 49.8284L315.353 47.4516C310.968 44.0745 305.347 42.45 298.618 42.45V45.45ZM313.529 49.8335C317.304 52.7073 319.537 56.5905 320.232 61.5867L323.204 61.1733C322.405 55.4361 319.785 50.826 315.347 47.4465L313.529 49.8335ZM321.718 59.88H305.338V62.88H321.718V59.88ZM343.135 56.83V55.33H341.635V56.83H343.135ZM343.135 62.92H341.635V64.42H343.135V62.92ZM358.535 62.92H360.035V61.42H358.535V62.92ZM358.535 74.61V76.11H360.035V74.61H358.535ZM343.135 74.61V73.11H341.635V74.61H343.135ZM343.135 81.61H341.635V83.11H343.135V81.61ZM360.635 81.61H362.135V80.11H360.635V81.61ZM360.635 94V95.5H362.135V94H360.635ZM327.595 94H326.095V95.5H327.595V94ZM327.595 44.44V42.94H326.095V44.44H327.595ZM360.635 44.44H362.135V42.94H360.635V44.44ZM360.635 56.83V58.33H362.135V56.83H360.635ZM341.635 56.83V62.92H344.635V56.83H341.635ZM343.135 64.42H358.535V61.42H343.135V64.42ZM357.035 62.92V74.61H360.035V62.92H357.035ZM358.535 73.11H343.135V76.11H358.535V73.11ZM341.635 74.61V81.61H344.635V74.61H341.635ZM343.135 83.11H360.635V80.11H343.135V83.11ZM359.135 81.61V94H362.135V81.61H359.135ZM360.635 92.5H327.595V95.5H360.635V92.5ZM329.095 94V44.44H326.095V94H329.095ZM327.595 45.94H360.635V42.94H327.595V45.94ZM359.135 44.44V56.83H362.135V44.44H359.135ZM360.635 55.33H343.135V58.33H360.635V55.33ZM414.021 94V95.5H415.521V94H414.021ZM398.481 94L397.229 94.8264L397.674 95.5H398.481V94ZM382.031 69.08L383.283 68.2536L380.531 64.0849V69.08H382.031ZM382.031 94V95.5H383.531V94H382.031ZM366.491 94H364.991V95.5H366.491V94ZM366.491 44.44V42.94H364.991V44.44H366.491ZM382.031 44.44L383.289 43.6233L382.846 42.94H382.031V44.44ZM398.481 69.78L397.223 70.5967L399.981 74.8455V69.78H398.481ZM398.481 44.44V42.94H396.981V44.44H398.481ZM414.021 44.44H415.521V42.94H414.021V44.44ZM414.021 92.5H398.481V95.5H414.021V92.5ZM399.733 93.1736L383.283 68.2536L380.779 69.9064L397.229 94.8264L399.733 93.1736ZM380.531 69.08V94H383.531V69.08H380.531ZM382.031 92.5H366.491V95.5H382.031V92.5ZM367.991 94V44.44H364.991V94H367.991ZM366.491 45.94H382.031V42.94H366.491V45.94ZM380.773 45.2567L397.223 70.5967L399.739 68.9632L383.289 43.6233L380.773 45.2567ZM399.981 69.78V44.44H396.981V69.78H399.981ZM398.481 45.94H414.021V42.94H398.481V45.94ZM412.521 44.44V94H415.521V44.44H412.521Z" fill="url(#paint0_linear_68_41)" mask="url(#path-2-outside-1_68_41)"/>
</g>
<g filter="url(#filter2_d_68_41)">
<path d="M262.343 21.7355L266.087 21.791C268.725 21.8301 270.804 23.5061 271.356 26.04L272.14 29.6355C275.19 43.6263 270.786 59.4877 260.404 71.9042L244.419 91.0221L206.424 60.3821L222.409 41.2642C232.79 28.8477 247.776 21.5195 262.343 21.7355Z" stroke="#FF0B0B" stroke-width="4.75737" stroke-linecap="round" stroke-linejoin="round"/>
<g filter="url(#filter3_d_68_41)">
<path d="M236.289 62.7045C241.535 66.935 249.958 65.3767 255.103 59.2239C260.247 53.0711 260.165 44.6537 254.919 40.4232C249.673 36.1927 241.249 37.7511 236.105 43.9039C230.96 50.0567 231.043 58.474 236.289 62.7045Z" fill="#F8F8F8"/>
<path d="M236.289 62.7045C241.535 66.935 249.958 65.3767 255.103 59.2239C260.247 53.0711 260.165 44.6537 254.919 40.4232C249.673 36.1927 241.249 37.7511 236.105 43.9039C230.96 50.0567 231.043 58.474 236.289 62.7045Z" stroke="#FF0B0B" stroke-width="4.75737"/>
</g>
<path d="M223.501 39.9575L204.349 43.8419L196.925 52.7221L253.918 98.6821L261.343 89.8018L261.496 70.5975" stroke="#FF0B0B" stroke-width="4.75737" stroke-linecap="round" stroke-linejoin="round"/>
<path d="M217.66 84.9858L208.345 96.1265" stroke="#FF0B0B" stroke-width="4.75737" stroke-linecap="round" stroke-linejoin="round"/>
<path d="M201.888 78.4863L198.783 82.1998" stroke="#FF0B0B" stroke-width="4.75737" stroke-linecap="round" stroke-linejoin="round"/>
<path d="M227.219 98.9127L224.114 102.626" stroke="#FF0B0B" stroke-width="4.75737" stroke-linecap="round" stroke-linejoin="round"/>
</g>
<defs>
<filter id="filter0_d_68_41" x="0.103516" y="44.44" width="193.771" height="58.05" filterUnits="userSpaceOnUse" color-interpolation-filters="sRGB">
<feFlood flood-opacity="0" result="BackgroundImageFix"/>
<feColorMatrix in="SourceAlpha" type="matrix" values="0 0 0 0 0 0 0 0 0 0 0 0 0 0 0 0 0 0 127 0" result="hardAlpha"/>
<feOffset dy="4"/>
<feGaussianBlur stdDeviation="2"/>
<feComposite in2="hardAlpha" operator="out"/>
<feColorMatrix type="matrix" values="0 0 0 0 0 0 0 0 0 0 0 0 0 0 0 0 0 0 0.55 0"/>
<feBlend mode="normal" in2="BackgroundImageFix" result="effect1_dropShadow_68_41"/>
<feBlend mode="normal" in="SourceGraphic" in2="effect1_dropShadow_68_41" result="shape"/>
</filter>
<filter id="filter1_d_68_41" x="265.558" y="37.95" width="156.463" height="66.4" filterUnits="userSpaceOnUse" color-interpolation-filters="sRGB">
<feFlood flood-opacity="0" result="BackgroundImageFix"/>
<feColorMatrix in="SourceAlpha" type="matrix" values="0 0 0 0 0 0 0 0 0 0 0 0 0 0 0 0 0 0 127 0" result="hardAlpha"/>
<feOffset dy="2"/>
<feGaussianBlur stdDeviation="4"/>
<feComposite in2="hardAlpha" operator="out"/>
<feColorMatrix type="matrix" values="0 0 0 0 0.533333 0 0 0 0 0.145098 0 0 0 0 0.145098 0 0 0 1 0"/>
<feBlend mode="normal" in2="BackgroundImageFix" result="effect1_dropShadow_68_41"/>
<feBlend mode="normal" in="SourceGraphic" in2="effect1_dropShadow_68_41" result="shape"/>
</filter>
<filter id="filter2_d_68_41" x="190.525" y="19.373" width="88.9634" height="93.6113" filterUnits="userSpaceOnUse" color-interpolation-filters="sRGB">
<feFlood flood-opacity="0" result="BackgroundImageFix"/>
<feColorMatrix in="SourceAlpha" type="matrix" values="0 0 0 0 0 0 0 0 0 0 0 0 0 0 0 0 0 0 127 0" result="hardAlpha"/>
<feOffset dy="4"/>
<feGaussianBlur stdDeviation="2"/>
<feComposite in2="hardAlpha" operator="out"/>
<feColorMatrix type="matrix" values="0 0 0 0 0 0 0 0 0 0 0 0 0 0 0 0 0 0 0.55 0"/>
<feBlend mode="normal" in2="BackgroundImageFix" result="effect1_dropShadow_68_41"/>
<feBlend mode="normal" in="SourceGraphic" in2="effect1_dropShadow_68_41" result="shape"/>
</filter>
<filter id="filter3_d_68_41" x="225.901" y="35.6743" width="39.4058" height="39.7792" filterUnits="userSpaceOnUse" color-interpolation-filters="sRGB">
<feFlood flood-opacity="0" result="BackgroundImageFix"/>
<feColorMatrix in="SourceAlpha" type="matrix" values="0 0 0 0 0 0 0 0 0 0 0 0 0 0 0 0 0 0 127 0" result="hardAlpha"/>
<feOffset dy="4"/>
<feGaussianBlur stdDeviation="2"/>
<feComposite in2="hardAlpha" operator="out"/>
<feColorMatrix type="matrix" values="0 0 0 0 0 0 0 0 0 0 0 0 0 0 0 0 0 0 0.45 0"/>
<feBlend mode="normal" in2="BackgroundImageFix" result="effect1_dropShadow_68_41"/>
<feBlend mode="normal" in="SourceGraphic" in2="effect1_dropShadow_68_41" result="shape"/>
</filter>
<linearGradient id="paint0_linear_68_41" x1="412" y1="64.5" x2="271" y2="69" gradientUnits="userSpaceOnUse">
<stop stop-color="#FF1212"/>
<stop offset="1" stop-color="#FAA795"/>
</linearGradient>
</defs>
</svg>
